<svg xmlns="http://www.w3.org/2000/svg" xmlns:xlink="http://www.w3.org/1999/xlink" width="500" zoomAndPan="magnify" viewBox="0 0 375 374.999991" height="500" preserveAspectRatio="xMidYMid meet" version="1.0"><defs><g/><clipPath id="4ebb8db56c"><path d="M 174.21875 100.027344 L 338.828125 100.027344 L 338.828125 267.246094 L 174.21875 267.246094 Z M 174.21875 100.027344 " clip-rule="nonzero"/></clipPath><clipPath id="f297ed74bc"><path d="M 35.828125 92.542969 L 203.617188 92.542969 L 203.617188 267.246094 L 35.828125 267.246094 Z M 35.828125 92.542969 " clip-rule="nonzero"/></clipPath></defs><path fill="#717af4" d="M 173.765625 244.871094 L 173.679688 244.945312 L 173.808594 244.621094 Z M 173.765625 244.871094 " fill-opacity="1" fill-rule="evenodd"/><g clip-path="url(#4ebb8db56c)"><path fill="#ff66c4" d="M 198.253906 119.402344 L 241.179688 119.402344 C 246.816406 110.039062 254.542969 103.515625 263.960938 101.128906 C 291.617188 94.125 323.410156 125.417969 334.960938 171.011719 C 346.511719 216.605469 333.449219 259.261719 305.792969 266.269531 C 281.78125 272.351562 254.652344 249.554688 240.359375 213.601562 L 235.152344 213.601562 C 233.347656 221.710938 223.785156 227.902344 212.265625 227.902344 C 206.773438 227.902344 201.726562 226.496094 197.75 224.140625 L 174.238281 244.464844 L 226.273438 148.308594 L 189.183594 155.828125 L 198.253906 119.402344 " fill-opacity="1" fill-rule="evenodd"/></g><g clip-path="url(#f297ed74bc)"><path fill="#717af4" d="M 133.8125 119.402344 L 161.140625 119.402344 L 203.492188 92.542969 L 152.644531 194.09375 L 189.734375 183.015625 C 185.28125 199.601562 181.753906 212.882812 179.15625 222.871094 C 174.957031 225.980469 169.144531 227.902344 162.722656 227.902344 C 151.203125 227.902344 141.644531 221.710938 139.835938 213.601562 L 134.632812 213.601562 C 120.339844 249.554688 93.210938 272.351562 69.195312 266.269531 C 41.539062 259.261719 28.480469 216.605469 40.03125 171.011719 C 51.582031 125.417969 83.375 94.125 111.03125 101.128906 C 120.449219 103.515625 128.171875 110.039062 133.8125 119.402344 " fill-opacity="1" fill-rule="evenodd"/></g><path fill="#000000" d="M 89.914062 150.960938 C 95.085938 150.960938 99.316406 155.195312 99.316406 160.367188 L 99.316406 172.824219 L 111.777344 172.824219 C 116.949219 172.824219 121.183594 177.058594 121.183594 182.230469 C 121.183594 187.402344 116.949219 191.632812 111.777344 191.632812 L 99.316406 191.632812 L 99.316406 204.097656 C 99.316406 209.269531 95.085938 213.5 89.914062 213.5 C 84.742188 213.5 80.507812 209.269531 80.507812 204.097656 L 80.507812 191.632812 L 68.046875 191.632812 C 62.875 191.632812 58.644531 187.402344 58.644531 182.230469 C 58.644531 177.058594 62.875 172.824219 68.046875 172.824219 L 80.507812 172.824219 L 80.507812 160.367188 C 80.507812 155.195312 84.742188 150.960938 89.914062 150.960938 " fill-opacity="1" fill-rule="evenodd"/><path fill="#000000" d="M 274.679688 195.789062 L 274.679688 199.1875 C 274.589844 198.632812 274.542969 198.066406 274.542969 197.488281 C 274.542969 196.910156 274.589844 196.34375 274.679688 195.789062 Z M 274.679688 174.945312 L 274.679688 178.34375 C 273.867188 183.367188 269.511719 187.203125 264.261719 187.203125 C 258.429688 187.203125 253.703125 182.476562 253.703125 176.644531 C 253.703125 170.816406 258.429688 166.089844 264.261719 166.089844 C 269.511719 166.089844 273.867188 169.925781 274.679688 174.945312 Z M 274.679688 157.503906 C 274.589844 156.949219 274.542969 156.382812 274.542969 155.804688 C 274.542969 155.226562 274.589844 154.660156 274.679688 154.105469 Z M 274.679688 178.34375 L 274.679688 174.945312 C 274.769531 175.5 274.816406 176.066406 274.816406 176.644531 C 274.816406 177.222656 274.769531 177.789062 274.679688 178.34375 Z M 295.519531 195.800781 L 295.519531 199.175781 C 294.714844 204.203125 290.355469 208.042969 285.101562 208.042969 C 279.847656 208.042969 275.492188 204.207031 274.679688 199.1875 L 274.679688 195.789062 C 275.492188 190.765625 279.847656 186.929688 285.101562 186.929688 C 290.355469 186.929688 294.714844 190.773438 295.519531 195.800781 Z M 295.519531 174.957031 L 295.519531 178.332031 C 295.433594 177.785156 295.386719 177.21875 295.386719 176.644531 C 295.386719 176.070312 295.433594 175.507812 295.519531 174.957031 Z M 285.101562 145.246094 C 290.355469 145.246094 294.714844 149.089844 295.519531 154.117188 L 295.519531 157.492188 C 294.714844 162.519531 290.355469 166.359375 285.101562 166.359375 C 279.847656 166.359375 275.492188 162.523438 274.679688 157.503906 L 274.679688 154.105469 C 275.492188 149.082031 279.847656 145.246094 285.101562 145.246094 Z M 295.519531 178.332031 L 295.519531 174.957031 C 296.328125 169.929688 300.6875 166.089844 305.945312 166.089844 C 311.773438 166.089844 316.5 170.816406 316.5 176.644531 C 316.5 182.476562 311.773438 187.203125 305.945312 187.203125 C 300.6875 187.203125 296.328125 183.363281 295.519531 178.332031 Z M 295.519531 199.175781 L 295.519531 195.800781 C 295.609375 196.351562 295.65625 196.914062 295.65625 197.488281 C 295.65625 198.0625 295.609375 198.625 295.519531 199.175781 Z M 295.519531 154.117188 C 295.609375 154.667969 295.65625 155.230469 295.65625 155.804688 C 295.65625 156.378906 295.609375 156.941406 295.519531 157.492188 L 295.519531 154.117188 " fill-opacity="1" fill-rule="evenodd"/><path stroke-linecap="butt" transform="matrix(1.107311, 0, 0, 1.107311, 22.888974, 196.880963)" fill="none" stroke-linejoin="miter" d="M 22.786845 47.99943 C 22.222415 47.99943 21.739121 47.801879 21.333437 47.40325 C 20.938335 47.001093 20.740785 46.521327 20.740785 45.963952 L 20.740785 14.556922 C 20.740785 13.96427 20.938335 13.477449 21.333437 13.09293 C 21.739121 12.704884 22.222415 12.510861 22.786845 12.510861 L 46.298904 12.510861 C 47.865198 12.510861 49.262164 12.860103 50.4898 13.562113 C 51.717437 14.253541 52.676969 15.213072 53.371924 16.440709 C 54.063351 17.668345 54.409065 19.065311 54.409065 20.631605 L 54.409065 24.445039 C 54.409065 25.542151 54.056296 26.44524 53.34723 27.150778 C 52.641692 27.859844 51.738603 28.212613 50.641491 28.212613 L 50.380442 28.212613 C 49.819539 28.212613 49.339773 28.406636 48.951727 28.798209 C 48.567209 29.1792 48.376714 29.669549 48.376714 30.258673 C 48.376714 30.816048 48.567209 31.288759 48.951727 31.680333 C 49.339773 32.061323 49.819539 32.251819 50.380442 32.251819 L 50.772016 32.251819 C 51.840906 32.251819 52.712245 32.594005 53.39309 33.271321 C 54.070406 33.948638 54.409065 34.823505 54.409065 35.892395 L 54.409065 45.911037 C 54.409065 46.47194 54.218569 46.962289 53.837579 47.382084 C 53.45306 47.794824 52.966239 47.99943 52.373587 47.99943 L 44.965437 47.99943 C 44.404534 47.99943 43.917713 47.801879 43.515556 47.40325 C 43.116927 47.001093 42.919376 46.521327 42.919376 45.963952 L 42.919376 36.735513 C 42.919376 36.174611 42.728881 35.7019 42.344362 35.317382 C 41.963372 34.929336 41.476551 34.731785 40.883899 34.731785 L 34.234202 34.731785 C 33.669771 34.731785 33.193533 34.929336 32.805487 35.317382 C 32.420969 35.7019 32.230473 36.174611 32.230473 36.735513 L 32.230473 45.911037 C 32.230473 46.47194 32.039978 46.962289 31.65546 47.382084 C 31.274469 47.794824 30.78412 47.99943 30.194996 47.99943 Z M 34.234202 25.732646 L 40.883899 25.732646 C 41.476551 25.732646 41.963372 25.542151 42.344362 25.157633 C 42.728881 24.769587 42.919376 24.293348 42.919376 23.728918 C 42.919376 23.17507 42.728881 22.705887 42.344362 22.321369 C 41.963372 21.933323 41.476551 21.735773 40.883899 21.735773 L 34.234202 21.735773 C 33.669771 21.735773 33.193533 21.933323 32.805487 22.321369 C 32.420969 22.705887 32.230473 23.17507 32.230473 23.728918 C 32.230473 24.293348 32.420969 24.769587 32.805487 25.157633 C 33.193533 25.542151 33.669771 25.732646 34.234202 25.732646 Z M 60.536663 47.99943 C 59.972233 47.99943 59.488939 47.801879 59.083255 47.40325 C 58.688153 47.001093 58.490603 46.521327 58.490603 45.963952 L 58.490603 14.556922 C 58.490603 13.96427 58.688153 13.477449 59.083255 13.09293 C 59.488939 12.704884 59.972233 12.510861 60.536663 12.510861 L 84.091054 12.510861 C 85.657349 12.510861 87.054314 12.860103 88.281951 13.562113 C 89.509587 14.253541 90.469119 15.213072 91.164074 16.440709 C 91.855501 17.668345 92.204743 19.065311 92.204743 20.631605 L 92.204743 24.445039 C 92.204743 25.542151 91.848446 26.44524 91.142908 27.150778 C 90.433842 27.859844 89.530753 28.212613 88.433641 28.212613 L 88.172592 28.212613 C 87.611689 28.212613 87.135451 28.406636 86.743878 28.798209 C 86.362887 29.1792 86.172392 29.669549 86.172392 30.258673 C 86.172392 30.816048 86.362887 31.288759 86.743878 31.680333 C 87.135451 32.061323 87.611689 32.251819 88.172592 32.251819 L 88.433641 32.251819 C 89.530753 32.251819 90.433842 32.611643 91.142908 33.324236 C 91.848446 34.033302 92.204743 34.946974 92.204743 36.065252 L 92.204743 39.832826 C 92.204743 41.39912 91.855501 42.799614 91.164074 44.023722 C 90.469119 45.251359 89.509587 46.225001 88.281951 46.937595 C 87.054314 47.646661 85.657349 47.99943 84.091054 47.99943 Z M 71.98402 25.732646 L 78.633717 25.732646 C 79.226369 25.732646 79.71319 25.542151 80.094181 25.157633 C 80.478699 24.769587 80.669194 24.293348 80.669194 23.728918 C 80.669194 23.17507 80.478699 22.705887 80.094181 22.321369 C 79.71319 21.933323 79.226369 21.735773 78.633717 21.735773 L 71.98402 21.735773 C 71.419589 21.735773 70.943351 21.933323 70.555305 22.321369 C 70.170787 22.705887 69.980291 23.17507 69.980291 23.728918 C 69.980291 24.293348 70.170787 24.769587 70.555305 25.157633 C 70.943351 25.542151 71.419589 25.732646 71.98402 25.732646 Z M 71.98402 38.774519 L 78.633717 38.774519 C 79.226369 38.774519 79.71319 38.57344 80.094181 38.178339 C 80.478699 37.772654 80.669194 37.292889 80.669194 36.735513 C 80.669194 36.174611 80.478699 35.7019 80.094181 35.317382 C 79.71319 34.929336 79.226369 34.731785 78.633717 34.731785 L 71.98402 34.731785 C 71.419589 34.731785 70.943351 34.929336 70.555305 35.317382 C 70.170787 35.7019 69.980291 36.174611 69.980291 36.735513 C 69.980291 37.292889 70.170787 37.772654 70.555305 38.178339 C 70.943351 38.57344 71.419589 38.774519 71.98402 38.774519 Z M 106.223786 47.99943 C 104.304722 47.99943 102.59732 47.569051 101.101579 46.711823 C 99.609365 45.851066 98.431117 44.672817 97.57036 43.170021 C 96.713131 41.66017 96.282753 39.942184 96.282753 38.016065 L 96.282753 22.451894 C 96.282753 20.525775 96.713131 18.814845 97.57036 17.329687 C 98.431117 15.833946 99.609365 14.659225 101.101579 13.798468 C 102.59732 12.937712 104.304722 12.510861 106.223786 12.510861 L 121.258803 12.510861 C 121.847928 12.510861 122.338277 12.704884 122.719267 13.09293 C 123.110841 13.477449 123.304864 13.96427 123.304864 14.556922 L 123.304864 20.448165 C 123.304864 21.012596 123.110841 21.49589 122.719267 21.898046 C 122.338277 22.296675 121.847928 22.494226 121.258803 22.494226 L 109.77617 22.494226 C 109.215267 22.494226 108.739029 22.688249 108.347455 23.06924 C 107.966465 23.45023 107.772442 23.940579 107.772442 24.529704 L 107.772442 35.97706 C 107.772442 36.54149 107.966465 37.014201 108.347455 37.398719 C 108.739029 37.77971 109.215267 37.970205 109.77617 37.970205 C 110.333545 37.970205 110.809783 37.77971 111.208412 37.398719 C 111.610569 37.014201 111.815175 36.54149 111.815175 35.97706 L 111.815175 28.787626 C 111.815175 28.20203 112.019781 27.718736 112.432521 27.337745 C 112.848789 26.946172 113.339138 26.752149 113.903568 26.752149 L 121.311719 26.752149 C 121.897315 26.752149 122.380609 26.946172 122.7616 27.337745 C 123.153173 27.718736 123.347196 28.20203 123.347196 28.787626 L 123.304864 45.911037 C 123.304864 46.500161 123.103786 47.001093 122.698101 47.40325 C 122.299472 47.801879 121.819706 47.99943 121.258803 47.99943 Z M 129.425407 47.99943 C 128.864504 47.99943 128.377683 47.801879 127.975526 47.40325 C 127.576897 47.001093 127.379347 46.521327 127.379347 45.963952 L 127.379347 22.451894 C 127.379347 20.525775 127.809725 18.814845 128.666954 17.329687 C 129.52771 15.833946 130.702431 14.659225 132.198172 13.798468 C 133.693913 12.937712 135.401315 12.510861 137.320379 12.510861 L 144.456897 12.510861 C 146.386544 12.510861 148.093946 12.937712 149.582632 13.798468 C 151.074845 14.659225 152.253094 15.833946 153.110323 17.329687 C 153.971079 18.814845 154.401457 20.525775 154.401457 22.451894 L 154.401457 45.963952 C 154.401457 46.521327 154.203907 47.001093 153.815861 47.40325 C 153.431342 47.801879 152.944521 47.99943 152.351869 47.99943 L 144.947246 47.99943 C 144.389871 47.99943 143.910105 47.801879 143.504421 47.40325 C 143.109319 47.001093 142.908241 46.521327 142.908241 45.963952 L 142.908241 40.234983 C 142.908241 39.670552 142.717746 39.190786 142.336755 38.795685 C 141.952237 38.397056 141.465416 38.199505 140.872764 38.199505 C 140.311861 38.199505 139.835622 38.39 139.444049 38.774519 C 139.063058 39.155509 138.869035 39.642331 138.869035 40.234983 L 138.869035 45.963952 C 138.869035 46.521327 138.67854 47.001093 138.297549 47.40325 C 137.913031 47.801879 137.42621 47.99943 136.833558 47.99943 Z M 140.872764 29.944709 C 141.465416 29.944709 141.952237 29.754213 142.336755 29.373223 C 142.717746 28.981649 142.908241 28.508939 142.908241 27.955091 L 142.908241 23.870025 C 142.908241 23.277373 142.717746 22.790552 142.336755 22.409561 C 141.952237 22.017988 141.465416 21.823965 140.872764 21.823965 C 140.311861 21.823965 139.835622 22.017988 139.444049 22.409561 C 139.063058 22.790552 138.869035 23.277373 138.869035 23.870025 L 138.869035 27.955091 C 138.869035 28.508939 139.063058 28.981649 139.444049 29.373223 C 139.835622 29.754213 140.311861 29.944709 140.872764 29.944709 Z M 160.522001 47.99943 C 159.95757 47.99943 159.474277 47.801879 159.07212 47.40325 C 158.673491 47.001093 158.47594 46.521327 158.47594 45.963952 L 158.47594 14.556922 C 158.47594 13.96427 158.673491 13.477449 159.07212 13.09293 C 159.474277 12.704884 159.95757 12.510861 160.522001 12.510861 L 175.694598 12.510861 C 176.28725 12.510861 176.774072 12.704884 177.15859 13.09293 C 177.539581 13.477449 177.730076 13.96427 177.730076 14.556922 L 177.730076 18.010531 C 177.730076 18.574962 177.924099 19.047672 178.305089 19.428663 C 178.696663 19.813181 179.169374 20.003676 179.723221 20.003676 C 180.315873 20.003676 180.802694 19.813181 181.187213 19.428663 C 181.575259 19.047672 181.769282 18.574962 181.769282 18.010531 L 181.769282 14.556922 C 181.769282 13.96427 181.97036 13.477449 182.365461 13.09293 C 182.76409 12.704884 183.243856 12.510861 183.808287 12.510861 L 198.980885 12.510861 C 199.573537 12.510861 200.060358 12.704884 200.441349 13.09293 C 200.825867 13.477449 201.016362 13.96427 201.016362 14.556922 L 201.016362 45.963952 C 201.016362 46.521327 200.825867 47.001093 200.441349 47.40325 C 200.060358 47.801879 199.573537 47.99943 198.980885 47.99943 L 191.572734 47.99943 C 191.008304 47.99943 190.528538 47.801879 190.129909 47.40325 C 189.734807 47.001093 189.537257 46.521327 189.537257 45.963952 L 189.537257 25.288157 C 189.537257 24.727254 189.339706 24.254544 188.95166 23.870025 C 188.567142 23.489035 188.08032 23.295012 187.487668 23.295012 C 186.926766 23.295012 186.454055 23.489035 186.069537 23.870025 C 185.688546 24.254544 185.498051 24.727254 185.498051 25.288157 L 185.498051 45.963952 C 185.498051 46.521327 185.3005 47.001093 184.912454 47.40325 C 184.527936 47.801879 184.041115 47.99943 183.448462 47.99943 L 176.040312 47.99943 C 175.486465 47.99943 175.006699 47.801879 174.601014 47.40325 C 174.205913 47.001093 174.004835 46.521327 174.004835 45.963952 L 174.004835 25.288157 C 174.004835 24.727254 173.814339 24.254544 173.433349 23.870025 C 173.04883 23.489035 172.562009 23.295012 171.969357 23.295012 C 171.404926 23.295012 170.928688 23.489035 170.540642 23.870025 C 170.156124 24.254544 169.965629 24.727254 169.965629 25.288157 L 169.965629 45.963952 C 169.965629 46.521327 169.775133 47.001093 169.390615 47.40325 C 169.009624 47.801879 168.522803 47.99943 167.930151 47.99943 Z M 207.143961 47.99943 C 206.57953 47.99943 206.096237 47.801879 205.69408 47.40325 C 205.295451 47.001093 205.0979 46.521327 205.0979 45.963952 L 205.0979 14.556922 C 205.0979 13.96427 205.295451 13.477449 205.69408 13.09293 C 206.096237 12.704884 206.57953 12.510861 207.143961 12.510861 L 236.776563 12.510861 C 237.365687 12.510861 237.856036 12.704884 238.237027 13.09293 C 238.618017 13.477449 238.81204 13.96427 238.81204 14.556922 L 238.81204 19.788487 C 238.81204 20.34939 238.618017 20.832684 238.237027 21.227785 C 237.856036 21.626414 237.365687 21.823965 236.776563 21.823965 L 218.591317 21.823965 C 218.026887 21.823965 217.550648 22.017988 217.162602 22.409561 C 216.778084 22.790552 216.587589 23.277373 216.587589 23.870025 C 216.587589 24.434456 216.778084 24.907166 217.162602 25.288157 C 217.550648 25.672675 218.026887 25.863171 218.591317 25.863171 L 234.998607 25.863171 C 235.591259 25.863171 236.07808 26.057194 236.462598 26.448767 C 236.850644 26.829758 237.044667 27.316579 237.044667 27.909231 L 237.044667 32.565783 C 237.044667 33.123158 236.850644 33.602924 236.462598 34.008608 C 236.07808 34.40371 235.591259 34.604788 234.998607 34.604788 L 218.591317 34.604788 C 218.026887 34.604788 217.550648 34.805867 217.162602 35.208023 C 216.778084 35.606652 216.587589 36.082891 216.587589 36.640266 C 216.587589 37.201169 216.778084 37.677407 217.162602 38.06898 C 217.550648 38.449971 218.026887 38.643994 218.591317 38.643994 L 236.776563 38.643994 C 237.365687 38.643994 237.856036 38.834489 238.237027 39.21548 C 238.618017 39.599998 238.81204 40.08682 238.81204 40.679472 L 238.81204 45.963952 C 238.81204 46.521327 238.618017 47.001093 238.237027 47.40325 C 237.856036 47.801879 237.365687 47.99943 236.776563 47.99943 Z M 244.939639 47.99943 C 244.375208 47.99943 243.891915 47.801879 243.48623 47.40325 C 243.091129 47.001093 242.890051 46.521327 242.890051 45.963952 L 242.890051 40.905244 C 242.890051 40.312592 243.091129 39.82577 243.48623 39.44478 C 243.891915 39.053206 244.375208 38.859183 244.939639 38.859183 L 263.036692 38.859183 C 263.625817 38.859183 264.116166 38.668688 264.497156 38.28417 C 264.881674 37.903179 265.07217 37.430468 265.07217 36.866038 C 265.07217 36.305135 264.881674 35.821841 264.497156 35.42674 C 264.116166 35.021056 263.625817 34.819977 263.036692 34.819977 L 252.605311 34.819977 C 250.74269 34.819977 249.07762 34.400182 247.613628 33.564119 C 246.153165 32.717474 245.003137 31.567447 244.160019 30.106983 C 243.313374 28.642991 242.890051 26.974393 242.890051 25.104717 L 242.890051 22.226122 C 242.890051 20.331752 243.313374 18.666682 244.160019 17.220328 C 245.003137 15.770448 246.153165 14.62042 247.613628 13.777302 C 249.07762 12.930657 250.74269 12.510861 252.605311 12.510861 L 274.526381 12.510861 C 275.119033 12.510861 275.605854 12.704884 275.986845 13.09293 C 276.371363 13.477449 276.561858 13.96427 276.561858 14.556922 L 276.561858 19.559187 C 276.561858 20.123618 276.371363 20.606912 275.986845 21.012596 C 275.605854 21.407697 275.119033 21.608776 274.526381 21.608776 L 256.386995 21.608776 C 255.822565 21.608776 255.346326 21.799271 254.954753 22.180262 C 254.573762 22.56478 254.383267 23.051601 254.383267 23.644253 C 254.383267 24.205156 254.573762 24.681394 254.954753 25.072968 C 255.346326 25.453959 255.822565 25.647982 256.386995 25.647982 L 266.846598 25.647982 C 268.73744 25.647982 270.409566 26.067777 271.862974 26.914422 C 273.312855 27.750485 274.455827 28.896985 275.295417 30.346866 C 276.138535 31.789691 276.561858 33.461816 276.561858 35.359714 L 276.561858 38.241837 C 276.561858 40.104458 276.138535 41.776583 275.295417 43.254686 C 274.455827 44.736316 273.312855 45.900454 271.862974 46.743572 C 270.409566 47.579635 268.73744 47.99943 266.846598 47.99943 Z M 244.939639 47.99943 " stroke="#000000" stroke-width="11.646101" stroke-opacity="1" stroke-miterlimit="4"/><g fill="#ffffff" fill-opacity="1"><g transform="translate(43.599146, 250.031881)"><g><path d="M 4.515625 0 C 3.898438 0 3.367188 -0.21875 2.921875 -0.65625 C 2.484375 -1.101562 2.265625 -1.640625 2.265625 -2.265625 L 2.265625 -37.046875 C 2.265625 -37.691406 2.484375 -38.226562 2.921875 -38.65625 C 3.367188 -39.082031 3.898438 -39.296875 4.515625 -39.296875 L 30.5625 -39.296875 C 32.289062 -39.296875 33.832031 -38.910156 35.1875 -38.140625 C 36.550781 -37.367188 37.617188 -36.300781 38.390625 -34.9375 C 39.160156 -33.582031 39.546875 -32.039062 39.546875 -30.3125 L 39.546875 -26.078125 C 39.546875 -24.867188 39.148438 -23.867188 38.359375 -23.078125 C 37.578125 -22.296875 36.582031 -21.90625 35.375 -21.90625 L 35.078125 -21.90625 C 34.453125 -21.90625 33.925781 -21.691406 33.5 -21.265625 C 33.070312 -20.835938 32.859375 -20.300781 32.859375 -19.65625 C 32.859375 -19.03125 33.070312 -18.503906 33.5 -18.078125 C 33.925781 -17.648438 34.453125 -17.4375 35.078125 -17.4375 L 35.515625 -17.4375 C 36.691406 -17.4375 37.65625 -17.054688 38.40625 -16.296875 C 39.164062 -15.546875 39.546875 -14.582031 39.546875 -13.40625 L 39.546875 -2.3125 C 39.546875 -1.6875 39.332031 -1.144531 38.90625 -0.6875 C 38.476562 -0.226562 37.9375 0 37.28125 0 L 29.078125 0 C 28.460938 0 27.929688 -0.21875 27.484375 -0.65625 C 27.046875 -1.101562 26.828125 -1.640625 26.828125 -2.265625 L 26.828125 -12.484375 C 26.828125 -13.097656 26.613281 -13.617188 26.1875 -14.046875 C 25.757812 -14.472656 25.21875 -14.6875 24.5625 -14.6875 L 17.1875 -14.6875 C 16.570312 -14.6875 16.050781 -14.472656 15.625 -14.046875 C 15.195312 -13.617188 14.984375 -13.097656 14.984375 -12.484375 L 14.984375 -2.3125 C 14.984375 -1.6875 14.769531 -1.144531 14.34375 -0.6875 C 13.914062 -0.226562 13.375 0 12.71875 0 Z M 17.1875 -24.65625 L 24.5625 -24.65625 C 25.21875 -24.65625 25.757812 -24.867188 26.1875 -25.296875 C 26.613281 -25.722656 26.828125 -26.25 26.828125 -26.875 C 26.828125 -27.5 26.613281 -28.019531 26.1875 -28.4375 C 25.757812 -28.863281 25.21875 -29.078125 24.5625 -29.078125 L 17.1875 -29.078125 C 16.570312 -29.078125 16.050781 -28.863281 15.625 -28.4375 C 15.195312 -28.019531 14.984375 -27.5 14.984375 -26.875 C 14.984375 -26.25 15.195312 -25.722656 15.625 -25.296875 C 16.050781 -24.867188 16.570312 -24.65625 17.1875 -24.65625 Z M 17.1875 -24.65625 "/></g></g></g><g fill="#ffffff" fill-opacity="1"><g transform="translate(85.40001, 250.031881)"><g><path d="M 4.515625 0 C 3.898438 0 3.367188 -0.21875 2.921875 -0.65625 C 2.484375 -1.101562 2.265625 -1.640625 2.265625 -2.265625 L 2.265625 -37.046875 C 2.265625 -37.691406 2.484375 -38.226562 2.921875 -38.65625 C 3.367188 -39.082031 3.898438 -39.296875 4.515625 -39.296875 L 30.609375 -39.296875 C 32.335938 -39.296875 33.878906 -38.910156 35.234375 -38.140625 C 36.597656 -37.367188 37.664062 -36.300781 38.4375 -34.9375 C 39.207031 -33.582031 39.59375 -32.039062 39.59375 -30.3125 L 39.59375 -26.078125 C 39.59375 -24.867188 39.195312 -23.867188 38.40625 -23.078125 C 37.625 -22.296875 36.628906 -21.90625 35.421875 -21.90625 L 35.125 -21.90625 C 34.5 -21.90625 33.972656 -21.691406 33.546875 -21.265625 C 33.117188 -20.835938 32.90625 -20.300781 32.90625 -19.65625 C 32.90625 -19.03125 33.117188 -18.503906 33.546875 -18.078125 C 33.972656 -17.648438 34.5 -17.4375 35.125 -17.4375 L 35.421875 -17.4375 C 36.628906 -17.4375 37.625 -17.039062 38.40625 -16.25 C 39.195312 -15.46875 39.59375 -14.457031 39.59375 -13.21875 L 39.59375 -9.03125 C 39.59375 -7.300781 39.207031 -5.753906 38.4375 -4.390625 C 37.664062 -3.035156 36.597656 -1.960938 35.234375 -1.171875 C 33.878906 -0.390625 32.335938 0 30.609375 0 Z M 17.1875 -24.65625 L 24.5625 -24.65625 C 25.21875 -24.65625 25.757812 -24.867188 26.1875 -25.296875 C 26.613281 -25.722656 26.828125 -26.25 26.828125 -26.875 C 26.828125 -27.5 26.613281 -28.019531 26.1875 -28.4375 C 25.757812 -28.863281 25.21875 -29.078125 24.5625 -29.078125 L 17.1875 -29.078125 C 16.570312 -29.078125 16.050781 -28.863281 15.625 -28.4375 C 15.195312 -28.019531 14.984375 -27.5 14.984375 -26.875 C 14.984375 -26.25 15.195312 -25.722656 15.625 -25.296875 C 16.050781 -24.867188 16.570312 -24.65625 17.1875 -24.65625 Z M 17.1875 -10.21875 L 24.5625 -10.21875 C 25.21875 -10.21875 25.757812 -10.4375 26.1875 -10.875 C 26.613281 -11.320312 26.828125 -11.859375 26.828125 -12.484375 C 26.828125 -13.097656 26.613281 -13.617188 26.1875 -14.046875 C 25.757812 -14.472656 25.21875 -14.6875 24.5625 -14.6875 L 17.1875 -14.6875 C 16.570312 -14.6875 16.050781 -14.472656 15.625 -14.046875 C 15.195312 -13.617188 14.984375 -13.097656 14.984375 -12.484375 C 14.984375 -11.859375 15.195312 -11.320312 15.625 -10.875 C 16.050781 -10.4375 16.570312 -10.21875 17.1875 -10.21875 Z M 17.1875 -10.21875 "/></g></g></g><g fill="#ffffff" fill-opacity="1"><g transform="translate(127.249992, 250.031881)"><g><path d="M 13.265625 0 C 11.140625 0 9.25 -0.472656 7.59375 -1.421875 C 5.9375 -2.367188 4.632812 -3.675781 3.6875 -5.34375 C 2.738281 -7.019531 2.265625 -8.921875 2.265625 -11.046875 L 2.265625 -28.296875 C 2.265625 -30.421875 2.738281 -32.3125 3.6875 -33.96875 C 4.632812 -35.625 5.9375 -36.925781 7.59375 -37.875 C 9.25 -38.820312 11.140625 -39.296875 13.265625 -39.296875 L 29.921875 -39.296875 C 30.578125 -39.296875 31.113281 -39.082031 31.53125 -38.65625 C 31.957031 -38.226562 32.171875 -37.691406 32.171875 -37.046875 L 32.171875 -30.5 C 32.171875 -29.882812 31.957031 -29.351562 31.53125 -28.90625 C 31.113281 -28.46875 30.578125 -28.25 29.921875 -28.25 L 17.1875 -28.25 C 16.570312 -28.25 16.050781 -28.035156 15.625 -27.609375 C 15.195312 -27.179688 14.984375 -26.640625 14.984375 -25.984375 L 14.984375 -13.3125 C 14.984375 -12.6875 15.195312 -12.160156 15.625 -11.734375 C 16.050781 -11.316406 16.570312 -11.109375 17.1875 -11.109375 C 17.8125 -11.109375 18.34375 -11.316406 18.78125 -11.734375 C 19.226562 -12.160156 19.453125 -12.6875 19.453125 -13.3125 L 19.453125 -21.265625 C 19.453125 -21.921875 19.679688 -22.460938 20.140625 -22.890625 C 20.597656 -23.316406 21.140625 -23.53125 21.765625 -23.53125 L 29.96875 -23.53125 C 30.625 -23.53125 31.160156 -23.316406 31.578125 -22.890625 C 32.003906 -22.460938 32.21875 -21.921875 32.21875 -21.265625 L 32.171875 -2.3125 C 32.171875 -1.65625 31.945312 -1.101562 31.5 -0.65625 C 31.0625 -0.21875 30.535156 0 29.921875 0 Z M 13.265625 0 "/></g></g></g><g fill="#ffffff" fill-opacity="1"><g transform="translate(161.682904, 250.031881)"><g><path d="M 4.515625 0 C 3.898438 0 3.367188 -0.21875 2.921875 -0.65625 C 2.484375 -1.101562 2.265625 -1.640625 2.265625 -2.265625 L 2.265625 -28.296875 C 2.265625 -30.421875 2.738281 -32.3125 3.6875 -33.96875 C 4.632812 -35.625 5.9375 -36.925781 7.59375 -37.875 C 9.25 -38.820312 11.140625 -39.296875 13.265625 -39.296875 L 21.171875 -39.296875 C 23.296875 -39.296875 25.1875 -38.820312 26.84375 -37.875 C 28.5 -36.925781 29.800781 -35.625 30.75 -33.96875 C 31.695312 -32.3125 32.171875 -30.421875 32.171875 -28.296875 L 32.171875 -2.265625 C 32.171875 -1.640625 31.957031 -1.101562 31.53125 -0.65625 C 31.113281 -0.21875 30.578125 0 29.921875 0 L 21.71875 0 C 21.09375 0 20.554688 -0.21875 20.109375 -0.65625 C 19.671875 -1.101562 19.453125 -1.640625 19.453125 -2.265625 L 19.453125 -8.59375 C 19.453125 -9.21875 19.238281 -9.75 18.8125 -10.1875 C 18.382812 -10.632812 17.84375 -10.859375 17.1875 -10.859375 C 16.570312 -10.859375 16.050781 -10.644531 15.625 -10.21875 C 15.195312 -9.789062 14.984375 -9.25 14.984375 -8.59375 L 14.984375 -2.265625 C 14.984375 -1.640625 14.769531 -1.101562 14.34375 -0.65625 C 13.914062 -0.21875 13.375 0 12.71875 0 Z M 17.1875 -20 C 17.84375 -20 18.382812 -20.207031 18.8125 -20.625 C 19.238281 -21.050781 19.453125 -21.578125 19.453125 -22.203125 L 19.453125 -26.71875 C 19.453125 -27.375 19.238281 -27.914062 18.8125 -28.34375 C 18.382812 -28.769531 17.84375 -28.984375 17.1875 -28.984375 C 16.570312 -28.984375 16.050781 -28.769531 15.625 -28.34375 C 15.195312 -27.914062 14.984375 -27.375 14.984375 -26.71875 L 14.984375 -22.203125 C 14.984375 -21.578125 15.195312 -21.050781 15.625 -20.625 C 16.050781 -20.207031 16.570312 -20 17.1875 -20 Z M 17.1875 -20 "/></g></g></g><g fill="#ffffff" fill-opacity="1"><g transform="translate(196.115816, 250.031881)"><g><path d="M 4.515625 0 C 3.898438 0 3.367188 -0.21875 2.921875 -0.65625 C 2.484375 -1.101562 2.265625 -1.640625 2.265625 -2.265625 L 2.265625 -37.046875 C 2.265625 -37.691406 2.484375 -38.226562 2.921875 -38.65625 C 3.367188 -39.082031 3.898438 -39.296875 4.515625 -39.296875 L 21.3125 -39.296875 C 21.96875 -39.296875 22.507812 -39.082031 22.9375 -38.65625 C 23.363281 -38.226562 23.578125 -37.691406 23.578125 -37.046875 L 23.578125 -33.203125 C 23.578125 -32.585938 23.789062 -32.066406 24.21875 -31.640625 C 24.644531 -31.210938 25.171875 -31 25.796875 -31 C 26.441406 -31 26.976562 -31.210938 27.40625 -31.640625 C 27.832031 -32.066406 28.046875 -32.585938 28.046875 -33.203125 L 28.046875 -37.046875 C 28.046875 -37.691406 28.265625 -38.226562 28.703125 -38.65625 C 29.148438 -39.082031 29.6875 -39.296875 30.3125 -39.296875 L 47.109375 -39.296875 C 47.765625 -39.296875 48.304688 -39.082031 48.734375 -38.65625 C 49.160156 -38.226562 49.375 -37.691406 49.375 -37.046875 L 49.375 -2.265625 C 49.375 -1.640625 49.160156 -1.101562 48.734375 -0.65625 C 48.304688 -0.21875 47.765625 0 47.109375 0 L 38.90625 0 C 38.28125 0 37.742188 -0.21875 37.296875 -0.65625 C 36.859375 -1.101562 36.640625 -1.640625 36.640625 -2.265625 L 36.640625 -25.15625 C 36.640625 -25.769531 36.425781 -26.289062 36 -26.71875 C 35.582031 -27.144531 35.046875 -27.359375 34.390625 -27.359375 C 33.765625 -27.359375 33.238281 -27.144531 32.8125 -26.71875 C 32.382812 -26.289062 32.171875 -25.769531 32.171875 -25.15625 L 32.171875 -2.265625 C 32.171875 -1.640625 31.957031 -1.101562 31.53125 -0.65625 C 31.113281 -0.21875 30.578125 0 29.921875 0 L 21.71875 0 C 21.09375 0 20.554688 -0.21875 20.109375 -0.65625 C 19.671875 -1.101562 19.453125 -1.640625 19.453125 -2.265625 L 19.453125 -25.15625 C 19.453125 -25.769531 19.238281 -26.289062 18.8125 -26.71875 C 18.382812 -27.144531 17.84375 -27.359375 17.1875 -27.359375 C 16.570312 -27.359375 16.050781 -27.144531 15.625 -26.71875 C 15.195312 -26.289062 14.984375 -25.769531 14.984375 -25.15625 L 14.984375 -2.265625 C 14.984375 -1.640625 14.769531 -1.101562 14.34375 -0.65625 C 13.914062 -0.21875 13.375 0 12.71875 0 Z M 4.515625 0 "/></g></g></g><g fill="#ffffff" fill-opacity="1"><g transform="translate(247.740617, 250.031881)"><g><path d="M 4.515625 0 C 3.898438 0 3.367188 -0.21875 2.921875 -0.65625 C 2.484375 -1.101562 2.265625 -1.640625 2.265625 -2.265625 L 2.265625 -37.046875 C 2.265625 -37.691406 2.484375 -38.226562 2.921875 -38.65625 C 3.367188 -39.082031 3.898438 -39.296875 4.515625 -39.296875 L 37.328125 -39.296875 C 37.984375 -39.296875 38.523438 -39.082031 38.953125 -38.65625 C 39.378906 -38.226562 39.59375 -37.691406 39.59375 -37.046875 L 39.59375 -31.25 C 39.59375 -30.625 39.378906 -30.085938 38.953125 -29.640625 C 38.523438 -29.203125 37.984375 -28.984375 37.328125 -28.984375 L 17.1875 -28.984375 C 16.570312 -28.984375 16.050781 -28.769531 15.625 -28.34375 C 15.195312 -27.914062 14.984375 -27.375 14.984375 -26.71875 C 14.984375 -26.101562 15.195312 -25.582031 15.625 -25.15625 C 16.050781 -24.726562 16.570312 -24.515625 17.1875 -24.515625 L 35.375 -24.515625 C 36.03125 -24.515625 36.566406 -24.300781 36.984375 -23.875 C 37.410156 -23.445312 37.625 -22.90625 37.625 -22.25 L 37.625 -17.09375 C 37.625 -16.46875 37.410156 -15.929688 36.984375 -15.484375 C 36.566406 -15.046875 36.03125 -14.828125 35.375 -14.828125 L 17.1875 -14.828125 C 16.570312 -14.828125 16.050781 -14.609375 15.625 -14.171875 C 15.195312 -13.734375 14.984375 -13.203125 14.984375 -12.578125 C 14.984375 -11.953125 15.195312 -11.425781 15.625 -11 C 16.050781 -10.570312 16.570312 -10.359375 17.1875 -10.359375 L 37.328125 -10.359375 C 37.984375 -10.359375 38.523438 -10.144531 38.953125 -9.71875 C 39.378906 -9.300781 39.59375 -8.765625 39.59375 -8.109375 L 39.59375 -2.265625 C 39.59375 -1.640625 39.378906 -1.101562 38.953125 -0.65625 C 38.523438 -0.21875 37.984375 0 37.328125 0 Z M 4.515625 0 "/></g></g></g><g fill="#ffffff" fill-opacity="1"><g transform="translate(289.590598, 250.031881)"><g><path d="M 4.515625 0 C 3.898438 0 3.367188 -0.21875 2.921875 -0.65625 C 2.484375 -1.101562 2.265625 -1.640625 2.265625 -2.265625 L 2.265625 -7.859375 C 2.265625 -8.515625 2.484375 -9.054688 2.921875 -9.484375 C 3.367188 -9.910156 3.898438 -10.125 4.515625 -10.125 L 24.5625 -10.125 C 25.21875 -10.125 25.757812 -10.332031 26.1875 -10.75 C 26.613281 -11.175781 26.828125 -11.703125 26.828125 -12.328125 C 26.828125 -12.953125 26.613281 -13.484375 26.1875 -13.921875 C 25.757812 -14.367188 25.21875 -14.59375 24.5625 -14.59375 L 13.015625 -14.59375 C 10.953125 -14.59375 9.109375 -15.054688 7.484375 -15.984375 C 5.867188 -16.921875 4.59375 -18.195312 3.65625 -19.8125 C 2.726562 -21.4375 2.265625 -23.28125 2.265625 -25.34375 L 2.265625 -28.546875 C 2.265625 -30.640625 2.726562 -32.488281 3.65625 -34.09375 C 4.59375 -35.695312 5.867188 -36.960938 7.484375 -37.890625 C 9.109375 -38.828125 10.953125 -39.296875 13.015625 -39.296875 L 37.28125 -39.296875 C 37.9375 -39.296875 38.476562 -39.082031 38.90625 -38.65625 C 39.332031 -38.226562 39.546875 -37.691406 39.546875 -37.046875 L 39.546875 -31.484375 C 39.546875 -30.867188 39.332031 -30.335938 38.90625 -29.890625 C 38.476562 -29.453125 37.9375 -29.234375 37.28125 -29.234375 L 17.1875 -29.234375 C 16.570312 -29.234375 16.050781 -29.019531 15.625 -28.59375 C 15.195312 -28.164062 14.984375 -27.625 14.984375 -26.96875 C 14.984375 -26.34375 15.195312 -25.816406 15.625 -25.390625 C 16.050781 -24.972656 16.570312 -24.765625 17.1875 -24.765625 L 28.78125 -24.765625 C 30.882812 -24.765625 32.738281 -24.296875 34.34375 -23.359375 C 35.945312 -22.421875 37.210938 -21.148438 38.140625 -19.546875 C 39.078125 -17.941406 39.546875 -16.09375 39.546875 -14 L 39.546875 -10.8125 C 39.546875 -8.75 39.078125 -6.894531 38.140625 -5.25 C 37.210938 -3.613281 35.945312 -2.328125 34.34375 -1.390625 C 32.738281 -0.460938 30.882812 0 28.78125 0 Z M 4.515625 0 "/></g></g></g><path fill="#00bf63" d="M 92.6875 257.761719 L 282.289062 257.761719 C 283.601562 257.761719 284.863281 258.285156 285.789062 259.210938 C 286.71875 260.140625 287.238281 261.398438 287.238281 262.710938 L 287.238281 272.613281 C 287.238281 273.925781 286.71875 275.183594 285.789062 276.113281 C 284.863281 277.039062 283.601562 277.5625 282.289062 277.5625 L 92.6875 277.5625 C 89.953125 277.5625 87.738281 275.34375 87.738281 272.613281 L 87.738281 262.710938 C 87.738281 259.976562 89.953125 257.761719 92.6875 257.761719 Z M 92.6875 257.761719 " fill-opacity="1" fill-rule="nonzero"/><g fill="#ffffff" fill-opacity="1"><g transform="translate(92.5379, 271.411799)"><g><path d="M 5.046875 0.125 C 4.109375 0.125 3.300781 -0.0546875 2.625 -0.421875 C 1.945312 -0.785156 1.429688 -1.289062 1.078125 -1.9375 C 0.722656 -2.59375 0.546875 -3.347656 0.546875 -4.203125 C 0.546875 -5.046875 0.722656 -5.789062 1.078125 -6.4375 C 1.429688 -7.09375 1.945312 -7.601562 2.625 -7.96875 C 3.300781 -8.332031 4.109375 -8.515625 5.046875 -8.515625 C 5.972656 -8.515625 6.773438 -8.332031 7.453125 -7.96875 C 8.128906 -7.601562 8.644531 -7.09375 9 -6.4375 C 9.351562 -5.789062 9.53125 -5.046875 9.53125 -4.203125 C 9.53125 -3.347656 9.351562 -2.59375 9 -1.9375 C 8.644531 -1.289062 8.128906 -0.785156 7.453125 -0.421875 C 6.773438 -0.0546875 5.972656 0.125 5.046875 0.125 Z M 5.046875 -1.140625 C 5.953125 -1.140625 6.65625 -1.410156 7.15625 -1.953125 C 7.664062 -2.503906 7.921875 -3.253906 7.921875 -4.203125 C 7.921875 -5.148438 7.65625 -5.894531 7.125 -6.4375 C 6.601562 -6.988281 5.867188 -7.265625 4.921875 -7.265625 C 4.046875 -7.265625 3.363281 -6.984375 2.875 -6.421875 C 2.394531 -5.867188 2.15625 -5.128906 2.15625 -4.203125 C 2.15625 -3.253906 2.40625 -2.503906 2.90625 -1.953125 C 3.414062 -1.410156 4.128906 -1.140625 5.046875 -1.140625 Z M 5.046875 -1.140625 "/></g></g></g><g fill="#ffffff" fill-opacity="1"><g transform="translate(102.617924, 271.411799)"><g><path d="M 1.40625 0.125 C 1.164062 0.125 0.972656 0.0625 0.828125 -0.0625 C 0.679688 -0.195312 0.609375 -0.375 0.609375 -0.59375 L 0.609375 -5.125 C 0.609375 -6.1875 0.941406 -7.015625 1.609375 -7.609375 C 2.273438 -8.210938 3.195312 -8.515625 4.375 -8.515625 C 5.539062 -8.515625 6.457031 -8.210938 7.125 -7.609375 C 7.789062 -7.015625 8.125 -6.1875 8.125 -5.125 L 8.125 -0.59375 C 8.125 -0.375 8.050781 -0.195312 7.90625 -0.0625 C 7.757812 0.0625 7.566406 0.125 7.328125 0.125 C 7.085938 0.125 6.894531 0.0546875 6.75 -0.078125 C 6.601562 -0.210938 6.53125 -0.382812 6.53125 -0.59375 L 6.53125 -5.15625 C 6.53125 -5.84375 6.34375 -6.363281 5.96875 -6.71875 C 5.601562 -7.082031 5.070312 -7.265625 4.375 -7.265625 C 3.664062 -7.265625 3.125 -7.082031 2.75 -6.71875 C 2.382812 -6.363281 2.203125 -5.84375 2.203125 -5.15625 L 2.203125 -0.59375 C 2.203125 -0.382812 2.128906 -0.210938 1.984375 -0.078125 C 1.835938 0.0546875 1.644531 0.125 1.40625 0.125 Z M 1.40625 0.125 "/></g></g></g><g fill="#ffffff" fill-opacity="1"><g transform="translate(111.353942, 271.411799)"><g><path d="M 2.59375 0 C 1.988281 0 1.515625 -0.15625 1.171875 -0.46875 C 0.835938 -0.789062 0.671875 -1.242188 0.671875 -1.828125 L 0.671875 -6.625 C 0.671875 -7.1875 0.832031 -7.625 1.15625 -7.9375 C 1.476562 -8.25 1.929688 -8.40625 2.515625 -8.40625 L 6.234375 -8.40625 C 6.472656 -8.40625 6.65625 -8.347656 6.78125 -8.234375 C 6.914062 -8.128906 6.984375 -7.976562 6.984375 -7.78125 C 6.984375 -7.582031 6.914062 -7.425781 6.78125 -7.3125 C 6.65625 -7.207031 6.472656 -7.15625 6.234375 -7.15625 L 2.78125 -7.15625 C 2.625 -7.15625 2.5 -7.101562 2.40625 -7 C 2.3125 -6.90625 2.265625 -6.765625 2.265625 -6.578125 L 2.265625 -4.90625 L 5.328125 -4.90625 C 5.566406 -4.90625 5.75 -4.847656 5.875 -4.734375 C 6.007812 -4.628906 6.078125 -4.476562 6.078125 -4.28125 C 6.078125 -4.09375 6.007812 -3.941406 5.875 -3.828125 C 5.738281 -3.722656 5.554688 -3.671875 5.328125 -3.671875 L 2.265625 -3.671875 L 2.265625 -1.828125 C 2.265625 -1.640625 2.3125 -1.492188 2.40625 -1.390625 C 2.5 -1.285156 2.625 -1.234375 2.78125 -1.234375 L 6.5 -1.234375 C 6.738281 -1.234375 6.921875 -1.175781 7.046875 -1.0625 C 7.179688 -0.957031 7.25 -0.804688 7.25 -0.609375 C 7.25 -0.421875 7.179688 -0.269531 7.046875 -0.15625 C 6.921875 -0.0507812 6.738281 0 6.5 0 Z M 2.59375 0 "/></g></g></g><g fill="#ffffff" fill-opacity="1"><g transform="translate(119.15396, 271.411799)"><g/></g></g><g fill="#ffffff" fill-opacity="1"><g transform="translate(122.369967, 271.411799)"><g><path d="M 4.734375 0.125 C 3.941406 0.125 3.203125 -0.00390625 2.515625 -0.265625 C 1.828125 -0.523438 1.234375 -0.898438 0.734375 -1.390625 C 0.609375 -1.515625 0.546875 -1.648438 0.546875 -1.796875 C 0.546875 -1.972656 0.628906 -2.140625 0.796875 -2.296875 C 0.921875 -2.429688 1.0625 -2.5 1.21875 -2.5 C 1.375 -2.5 1.5625 -2.40625 1.78125 -2.21875 C 2.164062 -1.875 2.613281 -1.609375 3.125 -1.421875 C 3.644531 -1.234375 4.179688 -1.140625 4.734375 -1.140625 C 5.253906 -1.140625 5.660156 -1.226562 5.953125 -1.40625 C 6.253906 -1.59375 6.40625 -1.847656 6.40625 -2.171875 C 6.40625 -2.515625 6.242188 -2.789062 5.921875 -3 C 5.609375 -3.21875 5.066406 -3.410156 4.296875 -3.578125 C 3.085938 -3.835938 2.207031 -4.179688 1.65625 -4.609375 C 1.113281 -5.046875 0.84375 -5.601562 0.84375 -6.28125 C 0.84375 -6.71875 0.984375 -7.101562 1.265625 -7.4375 C 1.554688 -7.78125 1.957031 -8.046875 2.46875 -8.234375 C 2.988281 -8.421875 3.582031 -8.515625 4.25 -8.515625 C 4.988281 -8.515625 5.648438 -8.390625 6.234375 -8.140625 C 6.816406 -7.898438 7.257812 -7.5625 7.5625 -7.125 C 7.664062 -6.957031 7.71875 -6.816406 7.71875 -6.703125 C 7.707031 -6.492188 7.609375 -6.320312 7.421875 -6.1875 C 7.316406 -6.113281 7.195312 -6.078125 7.0625 -6.078125 C 6.8125 -6.078125 6.601562 -6.171875 6.4375 -6.359375 C 6.207031 -6.640625 5.898438 -6.859375 5.515625 -7.015625 C 5.128906 -7.179688 4.707031 -7.265625 4.25 -7.265625 C 3.675781 -7.265625 3.234375 -7.175781 2.921875 -7 C 2.609375 -6.832031 2.453125 -6.59375 2.453125 -6.28125 C 2.453125 -5.976562 2.601562 -5.726562 2.90625 -5.53125 C 3.21875 -5.34375 3.753906 -5.160156 4.515625 -4.984375 C 5.347656 -4.785156 6.019531 -4.554688 6.53125 -4.296875 C 7.050781 -4.046875 7.425781 -3.75 7.65625 -3.40625 C 7.894531 -3.0625 8.015625 -2.648438 8.015625 -2.171875 C 8.015625 -1.710938 7.878906 -1.304688 7.609375 -0.953125 C 7.335938 -0.609375 6.953125 -0.34375 6.453125 -0.15625 C 5.960938 0.03125 5.390625 0.125 4.734375 0.125 Z M 4.734375 0.125 "/></g></g></g><g fill="#ffffff" fill-opacity="1"><g transform="translate(130.937986, 271.411799)"><g><path d="M 4.15625 0.125 C 3.914062 0.125 3.722656 0.0625 3.578125 -0.0625 C 3.441406 -0.195312 3.375 -0.375 3.375 -0.59375 L 3.375 -7.15625 L 1.0625 -7.15625 C 0.820312 -7.15625 0.632812 -7.207031 0.5 -7.3125 C 0.375 -7.425781 0.3125 -7.582031 0.3125 -7.78125 C 0.3125 -7.976562 0.375 -8.128906 0.5 -8.234375 C 0.632812 -8.347656 0.820312 -8.40625 1.0625 -8.40625 L 7.28125 -8.40625 C 7.519531 -8.40625 7.703125 -8.347656 7.828125 -8.234375 C 7.960938 -8.128906 8.03125 -7.976562 8.03125 -7.78125 C 8.03125 -7.582031 7.960938 -7.425781 7.828125 -7.3125 C 7.691406 -7.207031 7.507812 -7.15625 7.28125 -7.15625 L 4.96875 -7.15625 L 4.96875 -0.59375 C 4.96875 -0.382812 4.894531 -0.210938 4.75 -0.078125 C 4.601562 0.0546875 4.40625 0.125 4.15625 0.125 Z M 4.15625 0.125 "/></g></g></g><g fill="#ffffff" fill-opacity="1"><g transform="translate(139.278005, 271.411799)"><g><path d="M 5.046875 0.125 C 4.109375 0.125 3.300781 -0.0546875 2.625 -0.421875 C 1.945312 -0.785156 1.429688 -1.289062 1.078125 -1.9375 C 0.722656 -2.59375 0.546875 -3.347656 0.546875 -4.203125 C 0.546875 -5.046875 0.722656 -5.789062 1.078125 -6.4375 C 1.429688 -7.09375 1.945312 -7.601562 2.625 -7.96875 C 3.300781 -8.332031 4.109375 -8.515625 5.046875 -8.515625 C 5.972656 -8.515625 6.773438 -8.332031 7.453125 -7.96875 C 8.128906 -7.601562 8.644531 -7.09375 9 -6.4375 C 9.351562 -5.789062 9.53125 -5.046875 9.53125 -4.203125 C 9.53125 -3.347656 9.351562 -2.59375 9 -1.9375 C 8.644531 -1.289062 8.128906 -0.785156 7.453125 -0.421875 C 6.773438 -0.0546875 5.972656 0.125 5.046875 0.125 Z M 5.046875 -1.140625 C 5.953125 -1.140625 6.65625 -1.410156 7.15625 -1.953125 C 7.664062 -2.503906 7.921875 -3.253906 7.921875 -4.203125 C 7.921875 -5.148438 7.65625 -5.894531 7.125 -6.4375 C 6.601562 -6.988281 5.867188 -7.265625 4.921875 -7.265625 C 4.046875 -7.265625 3.363281 -6.984375 2.875 -6.421875 C 2.394531 -5.867188 2.15625 -5.128906 2.15625 -4.203125 C 2.15625 -3.253906 2.40625 -2.503906 2.90625 -1.953125 C 3.414062 -1.410156 4.128906 -1.140625 5.046875 -1.140625 Z M 5.046875 -1.140625 "/></g></g></g><g fill="#ffffff" fill-opacity="1"><g transform="translate(149.358029, 271.411799)"><g><path d="M 1.46875 0.125 C 1.226562 0.125 1.035156 0.0625 0.890625 -0.0625 C 0.742188 -0.195312 0.671875 -0.375 0.671875 -0.59375 L 0.671875 -6.625 C 0.671875 -7.1875 0.832031 -7.625 1.15625 -7.9375 C 1.476562 -8.25 1.929688 -8.40625 2.515625 -8.40625 L 4.53125 -8.40625 C 5.75 -8.40625 6.671875 -8.148438 7.296875 -7.640625 C 7.929688 -7.140625 8.25 -6.398438 8.25 -5.421875 C 8.25 -4.441406 7.941406 -3.703125 7.328125 -3.203125 C 6.710938 -2.703125 5.804688 -2.453125 4.609375 -2.453125 L 2.265625 -2.453125 L 2.265625 -0.59375 C 2.265625 -0.382812 2.191406 -0.210938 2.046875 -0.078125 C 1.898438 0.0546875 1.707031 0.125 1.46875 0.125 Z M 4.59375 -3.6875 C 5.957031 -3.6875 6.640625 -4.265625 6.640625 -5.421875 C 6.640625 -6.578125 5.957031 -7.15625 4.59375 -7.15625 L 2.78125 -7.15625 C 2.625 -7.15625 2.5 -7.101562 2.40625 -7 C 2.3125 -6.90625 2.265625 -6.765625 2.265625 -6.578125 L 2.265625 -3.6875 Z M 4.59375 -3.6875 "/></g></g></g><g fill="#ffffff" fill-opacity="1"><g transform="translate(158.166043, 271.411799)"><g/></g></g><g fill="#ffffff" fill-opacity="1"><g transform="translate(161.38205, 271.411799)"><g><path d="M 4.953125 0.125 C 4.046875 0.125 3.257812 -0.046875 2.59375 -0.390625 C 1.9375 -0.734375 1.429688 -1.226562 1.078125 -1.875 C 0.722656 -2.53125 0.546875 -3.300781 0.546875 -4.1875 C 0.546875 -5.070312 0.722656 -5.835938 1.078125 -6.484375 C 1.429688 -7.140625 1.9375 -7.640625 2.59375 -7.984375 C 3.257812 -8.335938 4.039062 -8.515625 4.9375 -8.515625 C 5.675781 -8.515625 6.359375 -8.382812 6.984375 -8.125 C 7.617188 -7.875 8.09375 -7.535156 8.40625 -7.109375 C 8.5 -6.984375 8.546875 -6.851562 8.546875 -6.71875 C 8.546875 -6.519531 8.4375 -6.34375 8.21875 -6.1875 C 8.125 -6.113281 8.003906 -6.078125 7.859375 -6.078125 C 7.742188 -6.078125 7.625 -6.101562 7.5 -6.15625 C 7.375 -6.207031 7.273438 -6.28125 7.203125 -6.375 C 6.929688 -6.6875 6.613281 -6.910156 6.25 -7.046875 C 5.894531 -7.191406 5.457031 -7.265625 4.9375 -7.265625 C 4.0625 -7.265625 3.378906 -6.992188 2.890625 -6.453125 C 2.398438 -5.910156 2.15625 -5.15625 2.15625 -4.1875 C 2.15625 -3.226562 2.398438 -2.476562 2.890625 -1.9375 C 3.390625 -1.40625 4.078125 -1.140625 4.953125 -1.140625 C 5.679688 -1.140625 6.25 -1.28125 6.65625 -1.5625 C 7.070312 -1.84375 7.28125 -2.226562 7.28125 -2.71875 L 7.28125 -2.984375 C 7.28125 -3.148438 7.242188 -3.265625 7.171875 -3.328125 C 7.097656 -3.398438 6.96875 -3.4375 6.78125 -3.4375 L 5.203125 -3.4375 C 4.984375 -3.4375 4.804688 -3.488281 4.671875 -3.59375 C 4.546875 -3.695312 4.484375 -3.847656 4.484375 -4.046875 C 4.484375 -4.242188 4.546875 -4.394531 4.671875 -4.5 C 4.796875 -4.613281 4.972656 -4.671875 5.203125 -4.671875 L 7.53125 -4.671875 C 8 -4.671875 8.335938 -4.570312 8.546875 -4.375 C 8.765625 -4.175781 8.875 -3.863281 8.875 -3.4375 L 8.875 -2.96875 C 8.875 -2.363281 8.707031 -1.828125 8.375 -1.359375 C 8.050781 -0.890625 7.59375 -0.523438 7 -0.265625 C 6.40625 -0.00390625 5.722656 0.125 4.953125 0.125 Z M 4.953125 0.125 "/></g></g></g><g fill="#ffffff" fill-opacity="1"><g transform="translate(170.814063, 271.411799)"><g><path d="M 1.40625 0.109375 C 1.164062 0.109375 0.972656 0.046875 0.828125 -0.078125 C 0.679688 -0.210938 0.609375 -0.390625 0.609375 -0.609375 L 0.609375 -4.8125 C 0.609375 -5.96875 0.941406 -6.875 1.609375 -7.53125 C 2.273438 -8.1875 3.195312 -8.515625 4.375 -8.515625 C 5.15625 -8.515625 5.828125 -8.363281 6.390625 -8.0625 C 6.960938 -7.769531 7.394531 -7.34375 7.6875 -6.78125 C 7.988281 -6.226562 8.140625 -5.570312 8.140625 -4.8125 L 8.140625 -0.609375 C 8.140625 -0.390625 8.066406 -0.210938 7.921875 -0.078125 C 7.785156 0.046875 7.597656 0.109375 7.359375 0.109375 C 7.117188 0.109375 6.921875 0.046875 6.765625 -0.078125 C 6.617188 -0.210938 6.546875 -0.390625 6.546875 -0.609375 L 6.546875 -2.5625 L 2.203125 -2.5625 L 2.203125 -0.609375 C 2.203125 -0.390625 2.128906 -0.210938 1.984375 -0.078125 C 1.835938 0.046875 1.644531 0.109375 1.40625 0.109375 Z M 6.546875 -3.796875 L 6.546875 -4.84375 C 6.546875 -5.644531 6.363281 -6.25 6 -6.65625 C 5.632812 -7.0625 5.09375 -7.265625 4.375 -7.265625 C 2.925781 -7.265625 2.203125 -6.457031 2.203125 -4.84375 L 2.203125 -3.796875 Z M 6.546875 -3.796875 "/></g></g></g><g fill="#ffffff" fill-opacity="1"><g transform="translate(179.57408, 271.411799)"><g><path d="M 1.46875 0.125 C 1.226562 0.125 1.035156 0.0625 0.890625 -0.0625 C 0.742188 -0.195312 0.671875 -0.375 0.671875 -0.59375 L 0.671875 -5.546875 C 0.671875 -6.472656 0.929688 -7.195312 1.453125 -7.71875 C 1.984375 -8.25 2.710938 -8.515625 3.640625 -8.515625 C 4.085938 -8.515625 4.507812 -8.40625 4.90625 -8.1875 C 5.3125 -7.96875 5.65625 -7.65625 5.9375 -7.25 C 6.21875 -7.664062 6.554688 -7.976562 6.953125 -8.1875 C 7.347656 -8.40625 7.78125 -8.515625 8.25 -8.515625 C 9.175781 -8.515625 9.898438 -8.25 10.421875 -7.71875 C 10.953125 -7.195312 11.21875 -6.472656 11.21875 -5.546875 L 11.21875 -0.59375 C 11.21875 -0.382812 11.144531 -0.210938 11 -0.078125 C 10.851562 0.0546875 10.660156 0.125 10.421875 0.125 C 10.179688 0.125 9.988281 0.0625 9.84375 -0.0625 C 9.695312 -0.195312 9.625 -0.375 9.625 -0.59375 L 9.625 -5.546875 C 9.625 -6.148438 9.507812 -6.585938 9.28125 -6.859375 C 9.0625 -7.128906 8.695312 -7.265625 8.1875 -7.265625 C 7.71875 -7.265625 7.359375 -7.113281 7.109375 -6.8125 C 6.859375 -6.519531 6.734375 -6.097656 6.734375 -5.546875 L 6.734375 -0.59375 C 6.734375 -0.375 6.660156 -0.195312 6.515625 -0.0625 C 6.367188 0.0625 6.175781 0.125 5.9375 0.125 C 5.695312 0.125 5.503906 0.0625 5.359375 -0.0625 C 5.222656 -0.195312 5.15625 -0.375 5.15625 -0.59375 L 5.15625 -5.546875 C 5.15625 -6.078125 5.023438 -6.492188 4.765625 -6.796875 C 4.515625 -7.109375 4.160156 -7.265625 3.703125 -7.265625 C 3.191406 -7.265625 2.820312 -7.128906 2.59375 -6.859375 C 2.375 -6.585938 2.265625 -6.148438 2.265625 -5.546875 L 2.265625 -0.59375 C 2.265625 -0.382812 2.191406 -0.210938 2.046875 -0.078125 C 1.898438 0.0546875 1.707031 0.125 1.46875 0.125 Z M 1.46875 0.125 "/></g></g></g><g fill="#ffffff" fill-opacity="1"><g transform="translate(191.466104, 271.411799)"><g><path d="M 1.828125 0.125 C 1.585938 0.125 1.394531 0.0625 1.25 -0.0625 C 1.101562 -0.195312 1.03125 -0.375 1.03125 -0.59375 L 1.03125 -7.796875 C 1.03125 -8.023438 1.101562 -8.203125 1.25 -8.328125 C 1.394531 -8.453125 1.585938 -8.515625 1.828125 -8.515625 C 2.054688 -8.515625 2.242188 -8.453125 2.390625 -8.328125 C 2.546875 -8.203125 2.625 -8.023438 2.625 -7.796875 L 2.625 -0.59375 C 2.625 -0.375 2.546875 -0.195312 2.390625 -0.0625 C 2.242188 0.0625 2.054688 0.125 1.828125 0.125 Z M 1.828125 0.125 "/></g></g></g><g fill="#ffffff" fill-opacity="1"><g transform="translate(195.126108, 271.411799)"><g><path d="M 1.40625 0.125 C 1.164062 0.125 0.972656 0.0625 0.828125 -0.0625 C 0.679688 -0.195312 0.609375 -0.375 0.609375 -0.59375 L 0.609375 -5.125 C 0.609375 -6.1875 0.941406 -7.015625 1.609375 -7.609375 C 2.273438 -8.210938 3.195312 -8.515625 4.375 -8.515625 C 5.539062 -8.515625 6.457031 -8.210938 7.125 -7.609375 C 7.789062 -7.015625 8.125 -6.1875 8.125 -5.125 L 8.125 -0.59375 C 8.125 -0.375 8.050781 -0.195312 7.90625 -0.0625 C 7.757812 0.0625 7.566406 0.125 7.328125 0.125 C 7.085938 0.125 6.894531 0.0546875 6.75 -0.078125 C 6.601562 -0.210938 6.53125 -0.382812 6.53125 -0.59375 L 6.53125 -5.15625 C 6.53125 -5.84375 6.34375 -6.363281 5.96875 -6.71875 C 5.601562 -7.082031 5.070312 -7.265625 4.375 -7.265625 C 3.664062 -7.265625 3.125 -7.082031 2.75 -6.71875 C 2.382812 -6.363281 2.203125 -5.84375 2.203125 -5.15625 L 2.203125 -0.59375 C 2.203125 -0.382812 2.128906 -0.210938 1.984375 -0.078125 C 1.835938 0.0546875 1.644531 0.125 1.40625 0.125 Z M 1.40625 0.125 "/></g></g></g><g fill="#ffffff" fill-opacity="1"><g transform="translate(203.862126, 271.411799)"><g><path d="M 4.953125 0.125 C 4.046875 0.125 3.257812 -0.046875 2.59375 -0.390625 C 1.9375 -0.734375 1.429688 -1.226562 1.078125 -1.875 C 0.722656 -2.53125 0.546875 -3.300781 0.546875 -4.1875 C 0.546875 -5.070312 0.722656 -5.835938 1.078125 -6.484375 C 1.429688 -7.140625 1.9375 -7.640625 2.59375 -7.984375 C 3.257812 -8.335938 4.039062 -8.515625 4.9375 -8.515625 C 5.675781 -8.515625 6.359375 -8.382812 6.984375 -8.125 C 7.617188 -7.875 8.09375 -7.535156 8.40625 -7.109375 C 8.5 -6.984375 8.546875 -6.851562 8.546875 -6.71875 C 8.546875 -6.519531 8.4375 -6.34375 8.21875 -6.1875 C 8.125 -6.113281 8.003906 -6.078125 7.859375 -6.078125 C 7.742188 -6.078125 7.625 -6.101562 7.5 -6.15625 C 7.375 -6.207031 7.273438 -6.28125 7.203125 -6.375 C 6.929688 -6.6875 6.613281 -6.910156 6.25 -7.046875 C 5.894531 -7.191406 5.457031 -7.265625 4.9375 -7.265625 C 4.0625 -7.265625 3.378906 -6.992188 2.890625 -6.453125 C 2.398438 -5.910156 2.15625 -5.15625 2.15625 -4.1875 C 2.15625 -3.226562 2.398438 -2.476562 2.890625 -1.9375 C 3.390625 -1.40625 4.078125 -1.140625 4.953125 -1.140625 C 5.679688 -1.140625 6.25 -1.28125 6.65625 -1.5625 C 7.070312 -1.84375 7.28125 -2.226562 7.28125 -2.71875 L 7.28125 -2.984375 C 7.28125 -3.148438 7.242188 -3.265625 7.171875 -3.328125 C 7.097656 -3.398438 6.96875 -3.4375 6.78125 -3.4375 L 5.203125 -3.4375 C 4.984375 -3.4375 4.804688 -3.488281 4.671875 -3.59375 C 4.546875 -3.695312 4.484375 -3.847656 4.484375 -4.046875 C 4.484375 -4.242188 4.546875 -4.394531 4.671875 -4.5 C 4.796875 -4.613281 4.972656 -4.671875 5.203125 -4.671875 L 7.53125 -4.671875 C 8 -4.671875 8.335938 -4.570312 8.546875 -4.375 C 8.765625 -4.175781 8.875 -3.863281 8.875 -3.4375 L 8.875 -2.96875 C 8.875 -2.363281 8.707031 -1.828125 8.375 -1.359375 C 8.050781 -0.890625 7.59375 -0.523438 7 -0.265625 C 6.40625 -0.00390625 5.722656 0.125 4.953125 0.125 Z M 4.953125 0.125 "/></g></g></g><g fill="#ffffff" fill-opacity="1"><g transform="translate(213.29414, 271.411799)"><g/></g></g><g fill="#ffffff" fill-opacity="1"><g transform="translate(216.510147, 271.411799)"><g><path d="M 4.734375 0.125 C 3.941406 0.125 3.203125 -0.00390625 2.515625 -0.265625 C 1.828125 -0.523438 1.234375 -0.898438 0.734375 -1.390625 C 0.609375 -1.515625 0.546875 -1.648438 0.546875 -1.796875 C 0.546875 -1.972656 0.628906 -2.140625 0.796875 -2.296875 C 0.921875 -2.429688 1.0625 -2.5 1.21875 -2.5 C 1.375 -2.5 1.5625 -2.40625 1.78125 -2.21875 C 2.164062 -1.875 2.613281 -1.609375 3.125 -1.421875 C 3.644531 -1.234375 4.179688 -1.140625 4.734375 -1.140625 C 5.253906 -1.140625 5.660156 -1.226562 5.953125 -1.40625 C 6.253906 -1.59375 6.40625 -1.847656 6.40625 -2.171875 C 6.40625 -2.515625 6.242188 -2.789062 5.921875 -3 C 5.609375 -3.21875 5.066406 -3.410156 4.296875 -3.578125 C 3.085938 -3.835938 2.207031 -4.179688 1.65625 -4.609375 C 1.113281 -5.046875 0.84375 -5.601562 0.84375 -6.28125 C 0.84375 -6.71875 0.984375 -7.101562 1.265625 -7.4375 C 1.554688 -7.78125 1.957031 -8.046875 2.46875 -8.234375 C 2.988281 -8.421875 3.582031 -8.515625 4.25 -8.515625 C 4.988281 -8.515625 5.648438 -8.390625 6.234375 -8.140625 C 6.816406 -7.898438 7.257812 -7.5625 7.5625 -7.125 C 7.664062 -6.957031 7.71875 -6.816406 7.71875 -6.703125 C 7.707031 -6.492188 7.609375 -6.320312 7.421875 -6.1875 C 7.316406 -6.113281 7.195312 -6.078125 7.0625 -6.078125 C 6.8125 -6.078125 6.601562 -6.171875 6.4375 -6.359375 C 6.207031 -6.640625 5.898438 -6.859375 5.515625 -7.015625 C 5.128906 -7.179688 4.707031 -7.265625 4.25 -7.265625 C 3.675781 -7.265625 3.234375 -7.175781 2.921875 -7 C 2.609375 -6.832031 2.453125 -6.59375 2.453125 -6.28125 C 2.453125 -5.976562 2.601562 -5.726562 2.90625 -5.53125 C 3.21875 -5.34375 3.753906 -5.160156 4.515625 -4.984375 C 5.347656 -4.785156 6.019531 -4.554688 6.53125 -4.296875 C 7.050781 -4.046875 7.425781 -3.75 7.65625 -3.40625 C 7.894531 -3.0625 8.015625 -2.648438 8.015625 -2.171875 C 8.015625 -1.710938 7.878906 -1.304688 7.609375 -0.953125 C 7.335938 -0.609375 6.953125 -0.34375 6.453125 -0.15625 C 5.960938 0.03125 5.390625 0.125 4.734375 0.125 Z M 4.734375 0.125 "/></g></g></g><g fill="#ffffff" fill-opacity="1"><g transform="translate(225.078167, 271.411799)"><g><path d="M 5.046875 0.125 C 4.109375 0.125 3.300781 -0.0546875 2.625 -0.421875 C 1.945312 -0.785156 1.429688 -1.289062 1.078125 -1.9375 C 0.722656 -2.59375 0.546875 -3.347656 0.546875 -4.203125 C 0.546875 -5.046875 0.722656 -5.789062 1.078125 -6.4375 C 1.429688 -7.09375 1.945312 -7.601562 2.625 -7.96875 C 3.300781 -8.332031 4.109375 -8.515625 5.046875 -8.515625 C 5.972656 -8.515625 6.773438 -8.332031 7.453125 -7.96875 C 8.128906 -7.601562 8.644531 -7.09375 9 -6.4375 C 9.351562 -5.789062 9.53125 -5.046875 9.53125 -4.203125 C 9.53125 -3.347656 9.351562 -2.59375 9 -1.9375 C 8.644531 -1.289062 8.128906 -0.785156 7.453125 -0.421875 C 6.773438 -0.0546875 5.972656 0.125 5.046875 0.125 Z M 5.046875 -1.140625 C 5.953125 -1.140625 6.65625 -1.410156 7.15625 -1.953125 C 7.664062 -2.503906 7.921875 -3.253906 7.921875 -4.203125 C 7.921875 -5.148438 7.65625 -5.894531 7.125 -6.4375 C 6.601562 -6.988281 5.867188 -7.265625 4.921875 -7.265625 C 4.046875 -7.265625 3.363281 -6.984375 2.875 -6.421875 C 2.394531 -5.867188 2.15625 -5.128906 2.15625 -4.203125 C 2.15625 -3.253906 2.40625 -2.503906 2.90625 -1.953125 C 3.414062 -1.410156 4.128906 -1.140625 5.046875 -1.140625 Z M 5.046875 -1.140625 "/></g></g></g><g fill="#ffffff" fill-opacity="1"><g transform="translate(235.158191, 271.411799)"><g><path d="M 2.59375 0 C 1.988281 0 1.515625 -0.15625 1.171875 -0.46875 C 0.835938 -0.789062 0.671875 -1.242188 0.671875 -1.828125 L 0.671875 -7.796875 C 0.671875 -8.023438 0.742188 -8.203125 0.890625 -8.328125 C 1.035156 -8.453125 1.226562 -8.515625 1.46875 -8.515625 C 1.707031 -8.515625 1.898438 -8.445312 2.046875 -8.3125 C 2.191406 -8.1875 2.265625 -8.015625 2.265625 -7.796875 L 2.265625 -1.828125 C 2.265625 -1.640625 2.3125 -1.492188 2.40625 -1.390625 C 2.5 -1.285156 2.625 -1.234375 2.78125 -1.234375 L 6.625 -1.234375 C 6.863281 -1.234375 7.046875 -1.175781 7.171875 -1.0625 C 7.304688 -0.957031 7.375 -0.804688 7.375 -0.609375 C 7.375 -0.421875 7.304688 -0.269531 7.171875 -0.15625 C 7.035156 -0.0507812 6.851562 0 6.625 0 Z M 2.59375 0 "/></g></g></g><g fill="#ffffff" fill-opacity="1"><g transform="translate(242.838206, 271.411799)"><g><path d="M 4.359375 0.125 C 3.609375 0.125 2.945312 -0.0234375 2.375 -0.328125 C 1.8125 -0.640625 1.375 -1.078125 1.0625 -1.640625 C 0.757812 -2.203125 0.609375 -2.867188 0.609375 -3.640625 L 0.609375 -7.796875 C 0.609375 -8.023438 0.679688 -8.203125 0.828125 -8.328125 C 0.972656 -8.453125 1.164062 -8.515625 1.40625 -8.515625 C 1.644531 -8.515625 1.835938 -8.445312 1.984375 -8.3125 C 2.128906 -8.1875 2.203125 -8.015625 2.203125 -7.796875 L 2.203125 -3.59375 C 2.203125 -2.800781 2.390625 -2.191406 2.765625 -1.765625 C 3.148438 -1.347656 3.691406 -1.140625 4.390625 -1.140625 C 5.085938 -1.140625 5.625 -1.351562 6 -1.78125 C 6.382812 -2.207031 6.578125 -2.8125 6.578125 -3.59375 L 6.578125 -7.796875 C 6.578125 -8.015625 6.648438 -8.1875 6.796875 -8.3125 C 6.941406 -8.445312 7.132812 -8.515625 7.375 -8.515625 C 7.613281 -8.515625 7.804688 -8.453125 7.953125 -8.328125 C 8.097656 -8.203125 8.171875 -8.023438 8.171875 -7.796875 L 8.171875 -3.640625 C 8.171875 -2.890625 8.007812 -2.226562 7.6875 -1.65625 C 7.375 -1.09375 6.929688 -0.65625 6.359375 -0.34375 C 5.785156 -0.03125 5.117188 0.125 4.359375 0.125 Z M 4.359375 0.125 "/></g></g></g><g fill="#ffffff" fill-opacity="1"><g transform="translate(251.622221, 271.411799)"><g><path d="M 4.15625 0.125 C 3.914062 0.125 3.722656 0.0625 3.578125 -0.0625 C 3.441406 -0.195312 3.375 -0.375 3.375 -0.59375 L 3.375 -7.15625 L 1.0625 -7.15625 C 0.820312 -7.15625 0.632812 -7.207031 0.5 -7.3125 C 0.375 -7.425781 0.3125 -7.582031 0.3125 -7.78125 C 0.3125 -7.976562 0.375 -8.128906 0.5 -8.234375 C 0.632812 -8.347656 0.820312 -8.40625 1.0625 -8.40625 L 7.28125 -8.40625 C 7.519531 -8.40625 7.703125 -8.347656 7.828125 -8.234375 C 7.960938 -8.128906 8.03125 -7.976562 8.03125 -7.78125 C 8.03125 -7.582031 7.960938 -7.425781 7.828125 -7.3125 C 7.691406 -7.207031 7.507812 -7.15625 7.28125 -7.15625 L 4.96875 -7.15625 L 4.96875 -0.59375 C 4.96875 -0.382812 4.894531 -0.210938 4.75 -0.078125 C 4.601562 0.0546875 4.40625 0.125 4.15625 0.125 Z M 4.15625 0.125 "/></g></g></g><g fill="#ffffff" fill-opacity="1"><g transform="translate(259.96224, 271.411799)"><g><path d="M 1.828125 0.125 C 1.585938 0.125 1.394531 0.0625 1.25 -0.0625 C 1.101562 -0.195312 1.03125 -0.375 1.03125 -0.59375 L 1.03125 -7.796875 C 1.03125 -8.023438 1.101562 -8.203125 1.25 -8.328125 C 1.394531 -8.453125 1.585938 -8.515625 1.828125 -8.515625 C 2.054688 -8.515625 2.242188 -8.453125 2.390625 -8.328125 C 2.546875 -8.203125 2.625 -8.023438 2.625 -7.796875 L 2.625 -0.59375 C 2.625 -0.375 2.546875 -0.195312 2.390625 -0.0625 C 2.242188 0.0625 2.054688 0.125 1.828125 0.125 Z M 1.828125 0.125 "/></g></g></g><g fill="#ffffff" fill-opacity="1"><g transform="translate(263.622243, 271.411799)"><g><path d="M 5.046875 0.125 C 4.109375 0.125 3.300781 -0.0546875 2.625 -0.421875 C 1.945312 -0.785156 1.429688 -1.289062 1.078125 -1.9375 C 0.722656 -2.59375 0.546875 -3.347656 0.546875 -4.203125 C 0.546875 -5.046875 0.722656 -5.789062 1.078125 -6.4375 C 1.429688 -7.09375 1.945312 -7.601562 2.625 -7.96875 C 3.300781 -8.332031 4.109375 -8.515625 5.046875 -8.515625 C 5.972656 -8.515625 6.773438 -8.332031 7.453125 -7.96875 C 8.128906 -7.601562 8.644531 -7.09375 9 -6.4375 C 9.351562 -5.789062 9.53125 -5.046875 9.53125 -4.203125 C 9.53125 -3.347656 9.351562 -2.59375 9 -1.9375 C 8.644531 -1.289062 8.128906 -0.785156 7.453125 -0.421875 C 6.773438 -0.0546875 5.972656 0.125 5.046875 0.125 Z M 5.046875 -1.140625 C 5.953125 -1.140625 6.65625 -1.410156 7.15625 -1.953125 C 7.664062 -2.503906 7.921875 -3.253906 7.921875 -4.203125 C 7.921875 -5.148438 7.65625 -5.894531 7.125 -6.4375 C 6.601562 -6.988281 5.867188 -7.265625 4.921875 -7.265625 C 4.046875 -7.265625 3.363281 -6.984375 2.875 -6.421875 C 2.394531 -5.867188 2.15625 -5.128906 2.15625 -4.203125 C 2.15625 -3.253906 2.40625 -2.503906 2.90625 -1.953125 C 3.414062 -1.410156 4.128906 -1.140625 5.046875 -1.140625 Z M 5.046875 -1.140625 "/></g></g></g><g fill="#ffffff" fill-opacity="1"><g transform="translate(273.702267, 271.411799)"><g><path d="M 1.40625 0.125 C 1.164062 0.125 0.972656 0.0625 0.828125 -0.0625 C 0.679688 -0.195312 0.609375 -0.375 0.609375 -0.59375 L 0.609375 -5.125 C 0.609375 -6.1875 0.941406 -7.015625 1.609375 -7.609375 C 2.273438 -8.210938 3.195312 -8.515625 4.375 -8.515625 C 5.539062 -8.515625 6.457031 -8.210938 7.125 -7.609375 C 7.789062 -7.015625 8.125 -6.1875 8.125 -5.125 L 8.125 -0.59375 C 8.125 -0.375 8.050781 -0.195312 7.90625 -0.0625 C 7.757812 0.0625 7.566406 0.125 7.328125 0.125 C 7.085938 0.125 6.894531 0.0546875 6.75 -0.078125 C 6.601562 -0.210938 6.53125 -0.382812 6.53125 -0.59375 L 6.53125 -5.15625 C 6.53125 -5.84375 6.34375 -6.363281 5.96875 -6.71875 C 5.601562 -7.082031 5.070312 -7.265625 4.375 -7.265625 C 3.664062 -7.265625 3.125 -7.082031 2.75 -6.71875 C 2.382812 -6.363281 2.203125 -5.84375 2.203125 -5.15625 L 2.203125 -0.59375 C 2.203125 -0.382812 2.128906 -0.210938 1.984375 -0.078125 C 1.835938 0.0546875 1.644531 0.125 1.40625 0.125 Z M 1.40625 0.125 "/></g></g></g></svg>